<svg width="83" height="56" viewBox="0 0 83 56" fill="none" xmlns="http://www.w3.org/2000/svg">
<path d="M13.1204 0.542071C14.5778 0.542071 15.873 0.678416 17.0154 0.945577C18.1522 1.21274 19.114 1.61256 19.9063 2.14136C20.6912 2.67015 21.2918 3.32424 21.7082 4.11651C22.1191 4.90141 22.3273 5.81713 22.3273 6.85261C22.3273 7.69648 22.191 8.4648 21.9238 9.15942C21.6566 9.85588 21.2881 10.4621 20.8128 10.9724C20.3374 11.4846 19.7718 11.8937 19.1177 12.2087C18.4636 12.5238 17.7432 12.7265 16.9712 12.8149C17.8924 12.8978 18.7492 13.1116 19.5341 13.4506C20.319 13.7951 20.997 14.241 21.5682 14.7882C22.1394 15.341 22.5853 15.9895 22.9058 16.7339C23.232 17.4764 23.3941 18.2927 23.3941 19.1789C23.3941 20.2733 23.1435 21.248 22.6516 22.1048C22.1523 22.9615 21.4558 23.6801 20.553 24.2642C19.6557 24.8538 18.5723 25.2997 17.3065 25.6074C16.0462 25.9114 14.6478 26.0661 13.1204 26.0661H0.00732422V0.540229H13.1277L13.1204 0.542071ZM12.1567 10.7587C12.5731 10.7587 12.9472 10.7108 13.2807 10.6095C13.6141 10.5155 13.8997 10.3607 14.1319 10.1636C14.3696 9.9609 14.5483 9.71217 14.6791 9.41368C14.8044 9.11704 14.8689 8.76512 14.8689 8.36714C14.8689 7.58224 14.6312 7.00554 14.1485 6.63704C13.6731 6.26854 13.0061 6.08429 12.1567 6.08429H7.51733V10.7587H12.1567ZM12.8348 20.5C13.8168 20.5 14.5593 20.3102 15.0642 19.9343C15.5764 19.5529 15.8307 18.9467 15.8307 18.1084C15.8307 17.2572 15.5746 16.6455 15.0697 16.2585C14.5575 15.8716 13.815 15.6818 12.8403 15.6818H7.51733V20.5H12.8348ZM55.881 0.553126V26.0661H48.3525V6.8692L43.6781 26.0661H36.6306L31.9746 6.83787V26.0661H24.8202V0.553126H36.5421L40.5864 17.5207L44.6418 0.553126H55.8828H55.881ZM65.1045 13.2921C65.1045 15.7242 65.5448 17.5501 66.4311 18.757C67.3173 19.9638 68.6255 20.57 70.3501 20.57C71.0576 20.57 71.7172 20.4871 72.3252 20.3139C72.9314 20.1407 73.4602 19.8919 73.9135 19.5585C74.3722 19.225 74.7407 18.8159 75.019 18.3277C75.299 17.8394 75.4648 17.2811 75.5238 16.6455H70.1363V12.3985H82.6911V26.0643H75.6859V20.5276C75.323 21.4802 74.8716 22.3296 74.3243 23.0795C73.7826 23.8349 73.1636 24.465 72.4689 24.9883C71.7725 25.5116 71.006 25.9095 70.1732 26.1841C69.3349 26.4641 68.4486 26.6005 67.496 26.6005C66.5453 26.6005 65.6407 26.4586 64.7784 26.1785C63.9161 25.893 63.1128 25.4821 62.3702 24.9478C61.6332 24.4134 60.9607 23.7575 60.3601 22.9781C59.7594 22.1988 59.2472 21.318 58.8253 20.3323C58.4033 19.3503 58.0754 18.2632 57.8506 17.0858C57.6184 15.9029 57.506 14.6353 57.506 13.2921C57.506 11.9416 57.6479 10.6758 57.9409 9.49107C58.2265 8.30818 58.6373 7.2248 59.1717 6.23722C59.706 5.25517 60.349 4.3763 61.1155 3.60245C61.8764 2.82861 62.7277 2.17452 63.6784 1.6402C64.6236 1.10587 65.6536 0.694998 66.759 0.414939C67.8719 0.13488 69.0437 -0.00146484 70.2745 -0.00146484C71.3026 -0.00146484 72.3031 0.0998723 73.2594 0.308074C74.2175 0.516276 75.1203 0.820288 75.966 1.21827C76.8172 1.61625 77.6021 2.11003 78.3262 2.69226C79.0522 3.27633 79.6934 3.94147 80.259 4.684C80.8173 5.43389 81.2945 6.2538 81.6796 7.15847C82.0665 8.06313 82.3447 9.03781 82.5179 10.0788H75.0595C74.9047 9.41368 74.6781 8.83514 74.387 8.34872C74.0903 7.86046 73.7384 7.45695 73.322 7.13636C72.9111 6.81576 72.4487 6.57808 71.9365 6.42331C71.4187 6.26854 70.866 6.19116 70.2709 6.19116C68.5758 6.19116 67.2915 6.78076 66.4164 7.95074C65.543 9.12809 65.1027 10.9061 65.1027 13.2903L65.1045 13.2921Z" fill="#393185"/>
<path d="M10.13 31.3412C11.5487 31.3412 12.8292 31.5181 13.9697 31.8645C15.1102 32.2109 16.0812 32.7065 16.8864 33.3569C17.6916 34.0018 18.3106 34.7922 18.7473 35.7245C19.1785 36.6586 19.3977 37.7089 19.3977 38.8715H15.3332C15.3332 38.269 15.2042 37.7254 14.9536 37.239C14.6975 36.7544 14.3456 36.338 13.8813 35.9972C13.4225 35.6563 12.8679 35.3947 12.223 35.2068C11.5837 35.0262 10.8688 34.9359 10.0839 34.9359C9.42798 34.9359 8.78311 35.0059 8.15298 35.1386C7.52284 35.2768 6.96273 35.4794 6.47262 35.7577C5.98252 36.0359 5.5827 36.3823 5.28237 36.8024C4.98389 37.2298 4.83465 37.7254 4.83465 38.2948C4.83465 38.807 4.95809 39.2271 5.20867 39.5421C5.45925 39.8627 5.82222 40.1225 6.29759 40.3252C6.77295 40.5279 7.35334 40.6937 8.04059 40.8208C8.72968 40.948 9.51274 41.0769 10.3935 41.2041L11.4603 41.3644C12.0996 41.4602 12.7611 41.567 13.4391 41.6905C14.1208 41.8084 14.7878 41.9669 15.4327 42.1603C16.0775 42.3519 16.6911 42.6025 17.2678 42.901C17.8482 43.1995 18.3493 43.579 18.7879 44.0378C19.219 44.4966 19.5617 45.0512 19.8178 45.6961C20.0684 46.3409 20.1974 47.1037 20.1974 47.99C20.1974 49.1839 19.9634 50.236 19.488 51.1314C19.0126 52.0324 18.342 52.7842 17.4834 53.383C16.6192 53.9855 15.5893 54.4387 14.3843 54.7372C13.1793 55.0412 11.8398 55.1904 10.3732 55.1904C8.77943 55.1904 7.36071 55.0136 6.11702 54.6672C4.87518 54.3153 3.82312 53.8086 2.96451 53.1471C2.10591 52.4857 1.44998 51.675 1.00226 50.715C0.549003 49.7551 0.324219 48.6662 0.324219 47.4464H4.3556C4.3556 48.0968 4.49378 48.6791 4.772 49.195C5.04469 49.7127 5.43898 50.1439 5.95672 50.5013C6.47447 50.8587 7.10276 51.1314 7.83975 51.323C8.58044 51.5091 9.40772 51.6049 10.3308 51.6049C11.1139 51.6049 11.8564 51.5349 12.5547 51.3912C13.2475 51.2475 13.8555 51.0282 14.3788 50.7298C14.902 50.4368 15.3129 50.0628 15.6169 49.6151C15.9209 49.1618 16.0702 48.6275 16.0702 48.0213C16.0702 47.4557 15.9412 46.9969 15.6906 46.6505C15.44 46.3041 15.0826 46.0204 14.6183 45.8085C14.1485 45.5947 13.5939 45.4252 12.9379 45.3073C12.2875 45.1839 11.5561 45.0678 10.7564 44.9499L9.41324 44.7582C8.93235 44.6882 8.44225 44.6145 7.93556 44.5335C7.42888 44.4542 6.92772 44.3566 6.42656 44.246C5.93093 44.1336 5.44451 44.001 4.97099 43.8462C4.49563 43.697 4.0479 43.5109 3.62228 43.2916C3.20035 43.0724 2.81159 42.8163 2.45414 42.5178C2.0967 42.2248 1.78716 41.884 1.53105 41.4878C1.26942 41.0935 1.06674 40.6513 0.923029 40.1502C0.779315 39.649 0.7093 39.0834 0.7093 38.4532C0.7093 37.6739 0.821692 36.9553 1.04463 36.2994C1.26942 35.6434 1.58448 35.0575 1.98799 34.5287C2.39334 34.0054 2.88344 33.543 3.45462 33.1468C4.02579 32.747 4.65961 32.4154 5.35791 32.1445C6.05069 31.8774 6.80243 31.6747 7.60944 31.542C8.41461 31.4094 9.2511 31.3394 10.1263 31.3394L10.13 31.3412ZM21.6493 43.2714C21.6493 42.0811 21.7709 40.9609 22.0122 39.9106C22.2517 38.8604 22.5981 37.895 23.0532 37.0087C23.5065 36.128 24.0555 35.3339 24.7004 34.6356C25.3508 33.9317 26.0823 33.3403 26.893 32.8539C27.7037 32.3693 28.5881 31.9953 29.548 31.7392C30.5135 31.4775 31.5324 31.3504 32.6103 31.3504C33.6881 31.3504 34.707 31.4794 35.6725 31.7392C36.6324 31.9953 37.5242 32.3693 38.333 32.8539C39.1437 33.3403 39.8697 33.9317 40.5201 34.6356C41.165 35.3339 41.7195 36.128 42.1728 37.0087C42.626 37.8931 42.9724 38.8604 43.2138 39.9106C43.4589 40.9609 43.5823 42.0811 43.5823 43.2714C43.5823 44.4598 43.4589 45.58 43.2138 46.6321C42.9743 47.6823 42.6279 48.6477 42.1728 49.534C41.7195 50.4147 41.165 51.2088 40.5201 51.9071C39.8697 52.611 39.1437 53.2024 38.333 53.6888C37.5223 54.1734 36.6324 54.5474 35.6725 54.8035C34.707 55.0652 33.6881 55.1923 32.6103 55.1923C31.5324 55.1923 30.5135 55.0633 29.548 54.8035C28.5881 54.5474 27.7037 54.1734 26.893 53.6888C26.0823 53.2042 25.3508 52.611 24.7004 51.9071C24.0555 51.2088 23.5065 50.4129 23.0532 49.534C22.6 48.6496 22.2536 47.6823 22.0122 46.6321C21.7727 45.5818 21.6493 44.4616 21.6493 43.2714ZM25.8741 43.2548C25.8741 44.55 26.0233 45.7071 26.3273 46.7205C26.6314 47.7394 27.068 48.598 27.6447 49.2963C28.2214 50.0001 28.9253 50.5345 29.7562 50.8974C30.5872 51.2659 31.5379 51.4465 32.5937 51.4465C33.6549 51.4465 34.6038 51.2659 35.4422 50.8974C36.2805 50.5345 36.9843 50.002 37.5647 49.2963C38.1469 48.598 38.5836 47.7394 38.8876 46.7205C39.1916 45.7071 39.3464 44.55 39.3464 43.2548C39.3464 41.9595 39.1972 40.8024 38.8932 39.789C38.5891 38.7701 38.1469 37.9115 37.5647 37.2132C36.988 36.5094 36.2842 35.9751 35.4477 35.6139C34.6167 35.2454 33.666 35.0649 32.6047 35.0649C31.5434 35.0649 30.6001 35.2454 29.7618 35.6139C28.9289 35.9769 28.2251 36.5094 27.6503 37.2132C27.0736 37.9115 26.6314 38.7701 26.3273 39.789C26.0233 40.8024 25.8741 41.9595 25.8741 43.2548ZM61.4674 35.5421H50.0108V41.8139H60.5075V45.4621H50.0108V54.7096H45.8025V31.8295H61.4656V35.5421H61.4674ZM81.4142 35.5421H73.9577V54.7096H69.766V35.5421H62.3094V31.8295H81.4142V35.5421Z" fill="#393185"/>
</svg>
