<svg width="28" height="19" viewBox="0 0 28 19" fill="none" xmlns="http://www.w3.org/2000/svg">
<path d="M4.64277 4.57129L0.829346 14.6187L6.38534 8.71194L27.2193 9.28484L4.64277 4.57129Z" fill="#002C44"/>
<path d="M0.946777 0.00012207C0.946777 0.00012207 5.17761 3.55998 4.60215 4.68996L27.0207 9.1704C27.0166 9.1704 16.2329 1.79783 0.946777 0.00012207Z" fill="#FF7B3A"/>
<path d="M0.659085 14.8125C0.484827 15.1325 9.15722 13.9512 9.15722 13.9512L6.18266 8.59363C6.18266 8.59363 2.19499 12.0112 0.659085 14.8125Z" fill="#FBC949"/>
<path d="M6.18262 8.59327C6.18262 8.59327 10.2595 15.0966 7.97789 18.8738L27.3773 9.25309C27.3773 9.25309 8.24535 8.21002 6.18262 8.59327Z" fill="#F75E28"/>
</svg>
