<svg width="88" height="150" viewBox="0 0 88 150" fill="none" xmlns="http://www.w3.org/2000/svg">
<path d="M30.5874 52.5873L30.7038 53.7633L31.8444 53.4539L78.7667 40.7251L43.7933 73.819L42.9091 74.6556L43.9015 75.3606L83.4656 103.464L35.1452 97.104L33.9541 96.9472L34.016 98.147L36.4853 145.964L11.1641 104.881L10.5486 103.882L9.65992 104.648L-26.8951 136.156L-10.0877 91.3219L-9.66595 90.1969L-10.8487 89.9863L-58.8313 81.4432L-12.6232 66.6132L-11.4641 66.2412L-12.054 65.1764L-35.3883 23.0593L5.49168 49.3758L6.48539 50.0155L6.9518 48.9296L25.8679 4.88967L30.5874 52.5873Z" stroke="#FFB100" stroke-width="2"/>
</svg>
